# xmcd CD database file generated by LOLA_Freedb v0.9beta0
# 
# Track frame offsets:
#      150
#      25134
#      52365
#      73104
#      97746
#      128037
# 
# Disc length: 2036 seconds
# 
# Revision: 0 
# Processed by: cddbd v1.5.2PL0 Copyright (c) Steve Scherf et al.
# Submitted via: LOLA_Freedb v0.9beta0
# 
DISCID=4e07f206
DTITLE=Mike Mandel - Utopia Parkway
DYEAR=1980
DGENRE=
TTITLE0=Don't Cha Give Up
TTITLE1=Woman Of Truth And Future
TTITLE2=Indians
TTITLE3=Old Time, New Town, Up Your Avenue Stomp
TTITLE4=The Glider
TTITLE5=Times Square
EXTD=
EXTT0=
EXTT1=
EXTT2=
EXTT3=
EXTT4=
EXTT5=
PLAYORDER=
